<mxfile host="app.diagrams.net" agent="Mozilla/5.0 (Macintosh; Intel Mac OS X 10_15_7) AppleWebKit/537.36 (KHTML, like Gecko) Chrome/128.0.0.0 Safari/537.36 Edg/128.0.0.0" version="25.0.3" pages="2">
  <diagram id="e22hNvlpfN5c61L2vQlw" name="Page-1">
    <mxGraphModel dx="1869" dy="1840" grid="0" gridSize="10" guides="1" tooltips="1" connect="1" arrows="1" fold="1" page="0" pageScale="1" pageWidth="850" pageHeight="1100" background="#ffffff" math="0" shadow="0">
      <root>
        <mxCell id="0" />
        <mxCell id="1" parent="0" />
        <mxCell id="mw-tG2SvXwZyPVMsNlKE-91" value="" style="rounded=0;whiteSpace=wrap;html=1;fillColor=#ffe6cc;strokeColor=#d79b00;" vertex="1" parent="1">
          <mxGeometry x="378" y="-114" width="790" height="334" as="geometry" />
        </mxCell>
        <mxCell id="yYOCXMEWniT7reJ3RpYq-102" value="&lt;font style=&quot;font-size: 18px;&quot;&gt;Create ResourceBinding&lt;/font&gt;" style="text;html=1;align=center;verticalAlign=middle;whiteSpace=wrap;rounded=0;fontSize=16;" vertex="1" parent="1">
          <mxGeometry x="468" y="121" width="178" height="52" as="geometry" />
        </mxCell>
        <mxCell id="mw-tG2SvXwZyPVMsNlKE-85" value="" style="group;rounded=1;glass=0;" vertex="1" connectable="0" parent="1">
          <mxGeometry x="255" y="-513" width="911" height="349" as="geometry" />
        </mxCell>
        <mxCell id="mw-tG2SvXwZyPVMsNlKE-83" value="" style="rounded=0;whiteSpace=wrap;html=1;fillColor=#d5e8d4;strokeColor=#82b366;" vertex="1" parent="mw-tG2SvXwZyPVMsNlKE-85">
          <mxGeometry x="1.7569913211186114" width="909.2430086788814" height="334.4583333333333" as="geometry" />
        </mxCell>
        <mxCell id="yYOCXMEWniT7reJ3RpYq-104" value="Volcano global" style="text;html=1;align=center;verticalAlign=middle;whiteSpace=wrap;rounded=0;fontSize=28;" vertex="1" parent="mw-tG2SvXwZyPVMsNlKE-85">
          <mxGeometry y="0.8319791666666632" width="202.9324975891996" height="48.16927083333333" as="geometry" />
        </mxCell>
        <mxCell id="mw-tG2SvXwZyPVMsNlKE-98" value="&lt;font&gt;Set ResourceBinding.&lt;/font&gt;&lt;div&gt;&lt;font&gt;schedulingSuspend=true when admit success&lt;/font&gt;&lt;/div&gt;" style="text;html=1;align=center;verticalAlign=middle;whiteSpace=wrap;rounded=0;fontSize=18;" vertex="1" parent="mw-tG2SvXwZyPVMsNlKE-85">
          <mxGeometry x="373" y="271.46" width="395" height="63" as="geometry" />
        </mxCell>
        <mxCell id="mw-tG2SvXwZyPVMsNlKE-119" value="" style="group" vertex="1" connectable="0" parent="mw-tG2SvXwZyPVMsNlKE-85">
          <mxGeometry x="436.99702025072327" y="36.37708333333333" width="426.9488910318226" height="232.66666666666666" as="geometry" />
        </mxCell>
        <mxCell id="mw-tG2SvXwZyPVMsNlKE-121" value="" style="group" vertex="1" connectable="0" parent="mw-tG2SvXwZyPVMsNlKE-119">
          <mxGeometry width="426.9488910318226" height="232.66666666666666" as="geometry" />
        </mxCell>
        <mxCell id="mw-tG2SvXwZyPVMsNlKE-84" value="" style="rounded=1;whiteSpace=wrap;html=1;fillColor=#dae8fc;strokeColor=#6c8ebf;" vertex="1" parent="mw-tG2SvXwZyPVMsNlKE-121">
          <mxGeometry width="426.9488910318226" height="232.66666666666666" as="geometry" />
        </mxCell>
        <mxCell id="mw-tG2SvXwZyPVMsNlKE-97" value="Controller" style="text;html=1;align=center;verticalAlign=middle;whiteSpace=wrap;rounded=0;fontSize=25;" vertex="1" parent="mw-tG2SvXwZyPVMsNlKE-121">
          <mxGeometry x="42.16779170684667" y="19.994791666666664" width="52.70973963355834" height="27.265625" as="geometry" />
        </mxCell>
        <mxCell id="mw-tG2SvXwZyPVMsNlKE-114" value="&lt;font style=&quot;font-size: 16px;&quot;&gt;Find the Queue related to ResourceBinding&lt;/font&gt;" style="rounded=1;whiteSpace=wrap;html=1;fillColor=#f8cecc;strokeColor=#b85450;" vertex="1" parent="mw-tG2SvXwZyPVMsNlKE-121">
          <mxGeometry x="178.33461909353906" y="19.994791666666664" width="201.61475409836066" height="54.53125" as="geometry" />
        </mxCell>
        <mxCell id="mw-tG2SvXwZyPVMsNlKE-115" value="&lt;font style=&quot;font-size: 16px;&quot;&gt;Sort ResourceBidning by Queue prioriry&lt;/font&gt;" style="rounded=1;whiteSpace=wrap;html=1;fillColor=#f8cecc;strokeColor=#b85450;" vertex="1" parent="mw-tG2SvXwZyPVMsNlKE-121">
          <mxGeometry x="178.33461909353906" y="92.703125" width="201.61475409836066" height="54.53125" as="geometry" />
        </mxCell>
        <mxCell id="mw-tG2SvXwZyPVMsNlKE-116" value="&lt;font style=&quot;font-size: 16px;&quot;&gt;Queue capacity management&lt;/font&gt;" style="rounded=1;whiteSpace=wrap;html=1;fillColor=#f8cecc;strokeColor=#b85450;" vertex="1" parent="mw-tG2SvXwZyPVMsNlKE-121">
          <mxGeometry x="178.33461909353906" y="167.22916666666666" width="201.61475409836066" height="54.53125" as="geometry" />
        </mxCell>
        <mxCell id="mw-tG2SvXwZyPVMsNlKE-120" value="" style="group" vertex="1" connectable="0" parent="mw-tG2SvXwZyPVMsNlKE-85">
          <mxGeometry x="168.00239151398264" y="54.997083333333336" width="210.83895853423337" height="105.42708333333333" as="geometry" />
        </mxCell>
        <mxCell id="yYOCXMEWniT7reJ3RpYq-103" value="" style="rounded=1;whiteSpace=wrap;html=1;fillColor=#dae8fc;strokeColor=#6c8ebf;" vertex="1" parent="mw-tG2SvXwZyPVMsNlKE-120">
          <mxGeometry width="210.83895853423337" height="105.42708333333333" as="geometry" />
        </mxCell>
        <mxCell id="mw-tG2SvXwZyPVMsNlKE-103" value="Webhook" style="text;html=1;align=center;verticalAlign=middle;whiteSpace=wrap;rounded=0;fontSize=25;" vertex="1" parent="mw-tG2SvXwZyPVMsNlKE-120">
          <mxGeometry x="35.50433944069431" y="10.1796875" width="52.70973963355834" height="27.265625" as="geometry" />
        </mxCell>
        <mxCell id="mw-tG2SvXwZyPVMsNlKE-104" value="&lt;font style=&quot;font-size: 18px;&quot;&gt;Set ResourceBinding.&lt;/font&gt;&lt;div&gt;&lt;font style=&quot;font-size: 18px;&quot;&gt;schedulingSuspend=true&lt;/font&gt;&lt;/div&gt;" style="text;html=1;align=center;verticalAlign=middle;whiteSpace=wrap;rounded=0;" vertex="1" parent="mw-tG2SvXwZyPVMsNlKE-120">
          <mxGeometry x="47.43876567020251" y="55.440104166666664" width="127.38187078109932" height="27.265625" as="geometry" />
        </mxCell>
        <mxCell id="mw-tG2SvXwZyPVMsNlKE-88" value="" style="group" vertex="1" connectable="0" parent="1">
          <mxGeometry x="-32" y="-45" width="469" height="250" as="geometry" />
        </mxCell>
        <mxCell id="14" style="edgeStyle=orthogonalEdgeStyle;rounded=0;orthogonalLoop=1;jettySize=auto;html=1;entryX=0;entryY=0.5;entryDx=0;entryDy=0;" parent="mw-tG2SvXwZyPVMsNlKE-88" source="2" target="5" edge="1">
          <mxGeometry relative="1" as="geometry" />
        </mxCell>
        <mxCell id="15" style="edgeStyle=orthogonalEdgeStyle;rounded=0;orthogonalLoop=1;jettySize=auto;html=1;entryX=0;entryY=0.5;entryDx=0;entryDy=0;" parent="mw-tG2SvXwZyPVMsNlKE-88" source="2" target="6" edge="1">
          <mxGeometry relative="1" as="geometry" />
        </mxCell>
        <mxCell id="16" style="edgeStyle=orthogonalEdgeStyle;rounded=0;orthogonalLoop=1;jettySize=auto;html=1;entryX=0;entryY=0.5;entryDx=0;entryDy=0;" parent="mw-tG2SvXwZyPVMsNlKE-88" source="2" target="7" edge="1">
          <mxGeometry relative="1" as="geometry" />
        </mxCell>
        <mxCell id="29" style="edgeStyle=orthogonalEdgeStyle;rounded=0;orthogonalLoop=1;jettySize=auto;html=1;entryX=0;entryY=0.5;entryDx=0;entryDy=0;" parent="mw-tG2SvXwZyPVMsNlKE-88" source="2" target="8" edge="1">
          <mxGeometry relative="1" as="geometry">
            <Array as="points">
              <mxPoint x="60" y="70" />
              <mxPoint x="60" y="225" />
            </Array>
          </mxGeometry>
        </mxCell>
        <mxCell id="2" value="User" style="shape=umlActor;verticalLabelPosition=bottom;verticalAlign=top;html=1;outlineConnect=0;" parent="mw-tG2SvXwZyPVMsNlKE-88" vertex="1">
          <mxGeometry y="40" width="30" height="60" as="geometry" />
        </mxCell>
        <mxCell id="17" style="edgeStyle=orthogonalEdgeStyle;rounded=0;orthogonalLoop=1;jettySize=auto;html=1;endArrow=none;endFill=0;" parent="mw-tG2SvXwZyPVMsNlKE-88" source="5" edge="1">
          <mxGeometry relative="1" as="geometry">
            <mxPoint x="345" y="20" as="targetPoint" />
          </mxGeometry>
        </mxCell>
        <mxCell id="5" value="Submit&amp;nbsp;Deployment" style="rounded=1;whiteSpace=wrap;html=1;fillColor=#f5f5f5;fontColor=#333333;strokeColor=#666666;fontSize=14;" parent="mw-tG2SvXwZyPVMsNlKE-88" vertex="1">
          <mxGeometry x="140" width="140" height="40" as="geometry" />
        </mxCell>
        <mxCell id="6" value="Submit&amp;nbsp;Volcano&amp;nbsp;Job" style="rounded=1;whiteSpace=wrap;html=1;fillColor=#f5f5f5;fontColor=#333333;strokeColor=#666666;fontSize=14;" parent="mw-tG2SvXwZyPVMsNlKE-88" vertex="1">
          <mxGeometry x="140" y="50" width="140" height="40" as="geometry" />
        </mxCell>
        <mxCell id="19" style="edgeStyle=orthogonalEdgeStyle;rounded=0;orthogonalLoop=1;jettySize=auto;html=1;endArrow=none;endFill=0;" parent="mw-tG2SvXwZyPVMsNlKE-88" source="7" edge="1">
          <mxGeometry relative="1" as="geometry">
            <mxPoint x="345" y="120" as="targetPoint" />
          </mxGeometry>
        </mxCell>
        <mxCell id="7" value="Submit&amp;nbsp;Pod(AI Traing)" style="rounded=1;whiteSpace=wrap;html=1;fillColor=#f5f5f5;fontColor=#333333;strokeColor=#666666;fontSize=14;" parent="mw-tG2SvXwZyPVMsNlKE-88" vertex="1">
          <mxGeometry x="140" y="100" width="140" height="40" as="geometry" />
        </mxCell>
        <mxCell id="8" value="Submit PropogationPolicy" style="rounded=1;whiteSpace=wrap;html=1;fillColor=#f5f5f5;fontColor=#333333;strokeColor=#666666;" parent="mw-tG2SvXwZyPVMsNlKE-88" vertex="1">
          <mxGeometry x="130" y="200" width="150" height="50" as="geometry" />
        </mxCell>
        <mxCell id="yYOCXMEWniT7reJ3RpYq-96" value="" style="endArrow=none;html=1;rounded=0;" edge="1" parent="mw-tG2SvXwZyPVMsNlKE-88">
          <mxGeometry width="50" height="50" relative="1" as="geometry">
            <mxPoint x="344" y="119.5" as="sourcePoint" />
            <mxPoint x="344" y="20.5" as="targetPoint" />
          </mxGeometry>
        </mxCell>
        <mxCell id="yYOCXMEWniT7reJ3RpYq-97" value="" style="endArrow=classic;html=1;rounded=0;movable=1;resizable=1;rotatable=1;deletable=1;editable=1;locked=0;connectable=1;" edge="1" parent="mw-tG2SvXwZyPVMsNlKE-88">
          <mxGeometry width="50" height="50" relative="1" as="geometry">
            <mxPoint x="281" y="70" as="sourcePoint" />
            <mxPoint x="410" y="70" as="targetPoint" />
          </mxGeometry>
        </mxCell>
        <mxCell id="mw-tG2SvXwZyPVMsNlKE-92" value="Karmada" style="text;html=1;align=center;verticalAlign=middle;whiteSpace=wrap;rounded=0;fontSize=28;" vertex="1" parent="1">
          <mxGeometry x="420" y="-89" width="60" height="30" as="geometry" />
        </mxCell>
        <mxCell id="mw-tG2SvXwZyPVMsNlKE-93" value="APIServer" style="rounded=1;whiteSpace=wrap;html=1;fontSize=22;fillColor=#dae8fc;strokeColor=#6c8ebf;" vertex="1" parent="1">
          <mxGeometry x="445" y="26" width="224" height="93" as="geometry" />
        </mxCell>
        <mxCell id="mw-tG2SvXwZyPVMsNlKE-94" value="Scheduler" style="rounded=1;whiteSpace=wrap;html=1;fontSize=22;fillColor=#dae8fc;strokeColor=#6c8ebf;" vertex="1" parent="1">
          <mxGeometry x="844" y="26" width="224" height="93" as="geometry" />
        </mxCell>
        <mxCell id="mw-tG2SvXwZyPVMsNlKE-101" value="&lt;font style=&quot;font-size: 18px;&quot;&gt;Schedule when ResourceBinidng.&lt;/font&gt;&lt;div&gt;&lt;font style=&quot;font-size: 18px;&quot;&gt;schedulingSuspend=false&lt;/font&gt;&lt;/div&gt;" style="text;html=1;align=center;verticalAlign=middle;whiteSpace=wrap;rounded=0;fontSize=16;" vertex="1" parent="1">
          <mxGeometry x="811" y="100" width="307" height="100" as="geometry" />
        </mxCell>
        <mxCell id="mw-tG2SvXwZyPVMsNlKE-125" value="" style="endArrow=classic;html=1;rounded=0;entryX=0.75;entryY=0;entryDx=0;entryDy=0;exitX=0.75;exitY=1;exitDx=0;exitDy=0;" edge="1" parent="1" source="mw-tG2SvXwZyPVMsNlKE-84" target="mw-tG2SvXwZyPVMsNlKE-94">
          <mxGeometry width="50" height="50" relative="1" as="geometry">
            <mxPoint x="1016" y="-265" as="sourcePoint" />
            <mxPoint x="585" y="-131" as="targetPoint" />
          </mxGeometry>
        </mxCell>
        <mxCell id="mw-tG2SvXwZyPVMsNlKE-126" value="" style="endArrow=classic;html=1;rounded=0;exitX=0.5;exitY=0;exitDx=0;exitDy=0;" edge="1" parent="1">
          <mxGeometry width="50" height="50" relative="1" as="geometry">
            <mxPoint x="539" y="26" as="sourcePoint" />
            <mxPoint x="539" y="-355" as="targetPoint" />
          </mxGeometry>
        </mxCell>
      </root>
    </mxGraphModel>
  </diagram>
  <diagram id="LQXIfwz0o8kIY4j7_Os7" name="第 2 页">
    <mxGraphModel dx="265" dy="676" grid="1" gridSize="10" guides="1" tooltips="1" connect="1" arrows="1" fold="1" page="1" pageScale="1" pageWidth="690" pageHeight="980" math="0" shadow="0">
      <root>
        <mxCell id="0" />
        <mxCell id="1" parent="0" />
        <mxCell id="cF3Z6rCIAbGeNynUnd23-1" value="volcano-global scheduler(Base on Karmada scheduler)" style="swimlane;labelBackgroundColor=none;fillColor=#994C00;fontColor=#FFFFFF;" vertex="1" parent="1">
          <mxGeometry x="1170" y="80" width="530" height="590" as="geometry" />
        </mxCell>
        <mxCell id="cF3Z6rCIAbGeNynUnd23-2" style="edgeStyle=orthogonalEdgeStyle;rounded=0;orthogonalLoop=1;jettySize=auto;html=1;fontColor=#FFFFFF;" edge="1" parent="cF3Z6rCIAbGeNynUnd23-1" source="cF3Z6rCIAbGeNynUnd23-3" target="cF3Z6rCIAbGeNynUnd23-6">
          <mxGeometry relative="1" as="geometry" />
        </mxCell>
        <mxCell id="cF3Z6rCIAbGeNynUnd23-3" value="ResourceBinding&lt;br&gt;Suspend=false" style="rounded=1;whiteSpace=wrap;html=1;fillColor=#0066CC;fontColor=#FFFFFF;" vertex="1" parent="cF3Z6rCIAbGeNynUnd23-1">
          <mxGeometry x="30" y="40" width="120" height="60" as="geometry" />
        </mxCell>
        <mxCell id="cF3Z6rCIAbGeNynUnd23-4" value="" style="endArrow=none;html=1;rounded=0;fontColor=#FFFFFF;" edge="1" parent="cF3Z6rCIAbGeNynUnd23-1">
          <mxGeometry width="50" height="50" relative="1" as="geometry">
            <mxPoint y="120" as="sourcePoint" />
            <mxPoint x="530" y="120" as="targetPoint" />
          </mxGeometry>
        </mxCell>
        <mxCell id="cF3Z6rCIAbGeNynUnd23-5" style="edgeStyle=orthogonalEdgeStyle;rounded=0;orthogonalLoop=1;jettySize=auto;html=1;entryX=0.5;entryY=0;entryDx=0;entryDy=0;fontColor=#FFFFFF;" edge="1" parent="cF3Z6rCIAbGeNynUnd23-1" source="cF3Z6rCIAbGeNynUnd23-6" target="cF3Z6rCIAbGeNynUnd23-8">
          <mxGeometry relative="1" as="geometry" />
        </mxCell>
        <mxCell id="cF3Z6rCIAbGeNynUnd23-6" value="FilterCluster" style="rounded=1;whiteSpace=wrap;html=1;fillColor=#FF3399;fontColor=#FFFFFF;" vertex="1" parent="cF3Z6rCIAbGeNynUnd23-1">
          <mxGeometry x="30" y="160" width="120" height="60" as="geometry" />
        </mxCell>
        <mxCell id="cF3Z6rCIAbGeNynUnd23-7" style="edgeStyle=orthogonalEdgeStyle;rounded=0;orthogonalLoop=1;jettySize=auto;html=1;entryX=0.5;entryY=0;entryDx=0;entryDy=0;fontColor=#FFFFFF;" edge="1" parent="cF3Z6rCIAbGeNynUnd23-1" source="cF3Z6rCIAbGeNynUnd23-8" target="cF3Z6rCIAbGeNynUnd23-10">
          <mxGeometry relative="1" as="geometry" />
        </mxCell>
        <mxCell id="cF3Z6rCIAbGeNynUnd23-8" value="ScoreCluster" style="rounded=1;whiteSpace=wrap;html=1;fillColor=#FF3399;fontColor=#FFFFFF;" vertex="1" parent="cF3Z6rCIAbGeNynUnd23-1">
          <mxGeometry x="30" y="270" width="120" height="60" as="geometry" />
        </mxCell>
        <mxCell id="cF3Z6rCIAbGeNynUnd23-9" style="edgeStyle=orthogonalEdgeStyle;rounded=0;orthogonalLoop=1;jettySize=auto;html=1;entryX=0.5;entryY=0;entryDx=0;entryDy=0;fontColor=#FFFFFF;" edge="1" parent="cF3Z6rCIAbGeNynUnd23-1" source="cF3Z6rCIAbGeNynUnd23-10" target="cF3Z6rCIAbGeNynUnd23-11">
          <mxGeometry relative="1" as="geometry" />
        </mxCell>
        <mxCell id="cF3Z6rCIAbGeNynUnd23-10" value="SelectCluster" style="rounded=1;whiteSpace=wrap;html=1;fillColor=#FF3399;fontColor=#FFFFFF;" vertex="1" parent="cF3Z6rCIAbGeNynUnd23-1">
          <mxGeometry x="30" y="390" width="120" height="60" as="geometry" />
        </mxCell>
        <mxCell id="cF3Z6rCIAbGeNynUnd23-11" value="ReplicaScheduling&lt;br&gt;(AssignReplica)" style="rounded=1;whiteSpace=wrap;html=1;fillColor=#FF3399;fontColor=#FFFFFF;" vertex="1" parent="cF3Z6rCIAbGeNynUnd23-1">
          <mxGeometry x="30" y="500" width="120" height="60" as="geometry" />
        </mxCell>
        <mxCell id="cF3Z6rCIAbGeNynUnd23-12" style="edgeStyle=orthogonalEdgeStyle;rounded=0;orthogonalLoop=1;jettySize=auto;html=1;entryX=1;entryY=0.5;entryDx=0;entryDy=0;fontColor=#FFFFFF;" edge="1" parent="cF3Z6rCIAbGeNynUnd23-1" source="cF3Z6rCIAbGeNynUnd23-13" target="cF3Z6rCIAbGeNynUnd23-11">
          <mxGeometry relative="1" as="geometry" />
        </mxCell>
        <mxCell id="cF3Z6rCIAbGeNynUnd23-13" value="Gang Scheduling Plugin" style="ellipse;whiteSpace=wrap;html=1;fillColor=#CC0066;fontColor=#FFFFFF;" vertex="1" parent="cF3Z6rCIAbGeNynUnd23-1">
          <mxGeometry x="300" y="490" width="120" height="80" as="geometry" />
        </mxCell>
      </root>
    </mxGraphModel>
  </diagram>
</mxfile>
